<?xml version="1.0" encoding="UTF-8" standalone="no"?>
<!DOCTYPE svg PUBLIC "-//W3C//DTD SVG 1.1//EN" "http://www.w3.org/Graphics/SVG/1.1/DTD/svg11.dtd">
<svg width="100%" height="100%" viewBox="0 0 330 900" version="1.1" xmlns="http://www.w3.org/2000/svg" xmlns:xlink="http://www.w3.org/1999/xlink" xml:space="preserve" xmlns:serif="http://www.serif.com/" style="fill-rule:evenodd;clip-rule:evenodd;stroke-linejoin:round;stroke-miterlimit:2;">
    <g id="rocket" transform="matrix(0.825118,0,0,0.864514,-340.983,-4.12102)">
        <g transform="matrix(0.906924,0,0,1.18784,50.7343,43.0215)">
            <path d="M804.632,797.326L791.201,790.054C791.201,790.054 799.032,705.575 724.059,678.713L817.053,702.77L804.632,797.326Z" style="fill:rgb(124,209,232);fill-rule:nonzero;"/>
        </g>
        <g transform="matrix(0.906924,0,0,1.18784,50.7343,43.0215)">
            <path d="M747.561,579.114C747.561,579.114 843.239,597.578 834.845,782.219L804.632,797.325C804.632,797.325 807.987,699.969 729.096,686.541L747.561,579.114Z" style="fill:rgb(45,139,160);fill-rule:nonzero;"/>
        </g>
        <g transform="matrix(0.906924,0,0,1.18784,65.8757,43.0215)">
            <path d="M417.417,797.326L430.846,790.054C430.846,790.054 423.015,705.575 497.989,678.713L404.994,702.77L417.417,797.326Z" style="fill:rgb(124,209,232);fill-rule:nonzero;"/>
        </g>
        <g transform="matrix(0.906924,0,0,1.18784,65.8757,43.0215)">
            <path d="M474.488,579.114C474.488,579.114 378.81,597.578 387.203,782.219L417.417,797.325C417.417,797.325 414.06,699.969 492.952,686.541L474.488,579.114Z" style="fill:rgb(45,139,160);fill-rule:nonzero;"/>
        </g>
        <g transform="matrix(1,0,0,0.988266,3.68483,6.48802)">
            <path d="M520.682,873.133L520.682,903.002C520.682,903.002 533.869,939.332 611.107,942.791C688.345,939.332 701.534,903.002 701.534,903.002L701.534,873.133L520.682,873.133Z" style="fill:rgb(245,132,48);fill-rule:nonzero;"/>
        </g>
        <g transform="matrix(1,0,0,0.975381,6.36079,11.1989)">
            <path d="M611.107,0L611.107,902.518L611.107,902.518C517.042,898.106 500.981,851.767 500.981,851.767C445.873,463.185 436.022,503.355 459.125,381.792C485.125,244.993 611.107,0 611.107,0L611.107,0Z" style="fill:white;"/>
        </g>
        <g transform="matrix(1.16317,0,0,1.12103,384.835,-0.429846)">
            <path d="M200,10.373C200.108,10.586 308.322,223.596 330.661,342.562C350.525,448.331 342.055,413.38 294.679,751.477C294.679,751.477 280.87,791.796 200,795.634L200,10.373Z" style="fill:rgb(231,231,231);"/>
        </g>
        <g transform="matrix(1,0,0,0.988266,3.68483,6.48802)">
            <circle cx="607.583" cy="348.888" r="60.383" style="fill:rgb(45,139,160);"/>
        </g>
        <g transform="matrix(0.70275,0,0,0.782732,206.748,233.312)">
            <path d="M448.05,764.385C484.139,701.23 523.165,664.721 523.165,664.721L531.558,668.917L539.951,673.112L459.38,837.611L405.667,1030.64L398.114,1027.29L390.56,1023.93C378.81,917.342 411.961,827.54 448.05,764.385Z" style="fill:rgb(124,209,232);fill-rule:nonzero;"/>
        </g>
        <g transform="matrix(0.70275,0,0,0.782732,206.748,233.312)">
            <path d="M539.951,673.112L539.951,778.862C539.951,778.862 439.238,851.039 430.845,1018.89L405.667,1030.64C393.917,788.094 539.951,673.112 539.951,673.112Z" style="fill:rgb(45,139,160);fill-rule:nonzero;"/>
        </g>
        <g transform="matrix(0.70275,0,0,0.782732,166.498,233.312)">
            <path d="M773.998,764.385C737.909,701.23 698.883,664.721 698.883,664.721L690.491,668.917L682.097,673.112L762.667,837.611L816.381,1030.64L823.935,1027.29L831.488,1023.93C843.239,917.342 810.086,827.54 773.998,764.385Z" style="fill:rgb(124,209,232);fill-rule:nonzero;"/>
        </g>
        <g transform="matrix(0.70275,0,0,0.782732,166.498,233.312)">
            <path d="M682.097,673.112L682.097,778.862C682.097,778.862 782.81,851.039 791.202,1018.89L816.381,1030.64C828.13,788.094 682.097,673.112 682.097,673.112Z" style="fill:rgb(45,139,160);fill-rule:nonzero;"/>
        </g>
        <g transform="matrix(1,0,0,0.988266,3.68483,6.48802)">
            <circle cx="607.583" cy="348.888" r="43.218" style="fill:rgb(124,209,232);"/>
        </g>
    </g>
</svg>
