<?xml version="1.0" encoding="UTF-8" standalone="no"?>
<!DOCTYPE svg PUBLIC "-//W3C//DTD SVG 1.1//EN" "http://www.w3.org/Graphics/SVG/1.1/DTD/svg11.dtd">
<svg width="100%" height="100%" viewBox="0 0 1500 300" version="1.1" xmlns="http://www.w3.org/2000/svg" xmlns:xlink="http://www.w3.org/1999/xlink" xml:space="preserve" xmlns:serif="http://www.serif.com/" style="fill-rule:evenodd;clip-rule:evenodd;stroke-linejoin:round;stroke-miterlimit:2;">
    <rect id="Artboard1" x="0" y="0" width="1500" height="300" style="fill:none;"/>
    <g id="Artboard11" serif:id="Artboard1">
        <g transform="matrix(1.54647,0,0,1.54647,-1014.85,-499.546)">
            <path d="M1578.41,468.318C1579.88,479.251 1582.01,490.051 1584.81,500.718C1585.35,502.451 1585.61,504.251 1585.61,506.118C1585.61,512.118 1581.95,515.118 1574.61,515.118C1570.48,515.118 1567.31,513.985 1565.11,511.718C1562.91,509.451 1560.88,505.185 1559.01,498.918L1558.81,498.118C1553.75,504.385 1549.18,508.585 1545.11,510.718C1541.05,512.851 1536.35,513.918 1531.01,513.918C1522.88,513.918 1516.18,510.885 1510.91,504.818C1505.65,498.751 1503.01,490.851 1503.01,481.118C1503.01,470.451 1505.28,460.585 1509.81,451.518C1514.35,442.451 1520.55,435.018 1528.41,429.218C1536.28,423.418 1545.08,419.918 1554.81,418.718C1557.35,393.518 1562.18,371.585 1569.31,352.918C1576.45,334.251 1585.95,324.918 1597.81,324.918C1603.55,324.918 1608.31,327.518 1612.11,332.718C1615.91,337.918 1617.81,345.785 1617.81,356.318C1617.81,370.985 1614.21,388.118 1607.01,407.718C1599.81,427.318 1590.28,447.518 1578.41,468.318ZM1595.61,344.518C1591.75,344.518 1588.11,354.385 1584.71,374.118C1581.31,393.851 1579.01,415.318 1577.81,438.518C1592.61,406.518 1600.01,380.518 1600.01,360.518C1600.01,355.451 1599.58,351.518 1598.71,348.718C1597.85,345.918 1596.81,344.518 1595.61,344.518ZM1538.01,493.718C1540.68,493.718 1543.25,492.718 1545.71,490.718C1548.18,488.718 1551.35,484.851 1555.21,479.118C1553.88,469.385 1553.21,459.318 1553.21,448.918C1553.21,444.785 1553.28,441.585 1553.41,439.318C1546.08,441.451 1540.01,446.318 1535.21,453.918C1530.41,461.518 1528.01,469.918 1528.01,479.118C1528.01,488.851 1531.35,493.718 1538.01,493.718Z"/>
            <text x="653.614px" y="512.918px" style="font-family:'Pacifico-Regular', 'Pacifico';font-size:200px;">bre<tspan x="916.814px " y="512.918px ">a</tspan>dhoun</text>
        </g>
    </g>
</svg>
