<?xml version="1.0" encoding="UTF-8" standalone="no"?>
<!DOCTYPE svg PUBLIC "-//W3C//DTD SVG 1.1//EN" "http://www.w3.org/Graphics/SVG/1.1/DTD/svg11.dtd">
<svg width="100%" height="100%" viewBox="0 0 1500 300" version="1.1" xmlns="http://www.w3.org/2000/svg" xmlns:xlink="http://www.w3.org/1999/xlink" xml:space="preserve" xmlns:serif="http://www.serif.com/" style="fill-rule:evenodd;clip-rule:evenodd;stroke-linejoin:round;stroke-miterlimit:2;">
    <rect id="Artboard1" x="0" y="0" width="1500" height="300" style="fill:none;"/>
    <g id="Artboard11" serif:id="Artboard1">
        <g transform="matrix(1.54647,0,0,1.54647,-1014.85,-499.546)">
            <g transform="matrix(200,0,0,200,653.614,512.918)">
                <path d="M0.58,-0.307C0.589,-0.307 0.595,-0.303 0.6,-0.294C0.605,-0.285 0.607,-0.274 0.607,-0.261C0.607,-0.244 0.605,-0.232 0.6,-0.223C0.595,-0.214 0.588,-0.207 0.578,-0.204C0.538,-0.19 0.494,-0.182 0.446,-0.18C0.433,-0.125 0.407,-0.08 0.371,-0.046C0.334,-0.012 0.293,0.005 0.248,0.005C0.181,0.005 0.132,-0.021 0.101,-0.072C0.07,-0.123 0.055,-0.198 0.055,-0.295C0.055,-0.381 0.066,-0.474 0.087,-0.576C0.108,-0.677 0.14,-0.762 0.181,-0.834C0.222,-0.905 0.27,-0.94 0.327,-0.94C0.358,-0.94 0.382,-0.927 0.401,-0.901C0.42,-0.874 0.429,-0.84 0.429,-0.798C0.429,-0.743 0.419,-0.689 0.398,-0.635C0.377,-0.581 0.343,-0.524 0.295,-0.465C0.34,-0.462 0.376,-0.443 0.404,-0.409C0.432,-0.376 0.449,-0.334 0.454,-0.285C0.485,-0.287 0.523,-0.294 0.566,-0.305C0.57,-0.306 0.575,-0.307 0.58,-0.307ZM0.304,-0.841C0.291,-0.841 0.276,-0.821 0.261,-0.782C0.245,-0.742 0.23,-0.688 0.217,-0.62C0.204,-0.552 0.194,-0.478 0.187,-0.397C0.231,-0.478 0.266,-0.549 0.293,-0.611C0.319,-0.672 0.332,-0.727 0.332,-0.775C0.332,-0.796 0.33,-0.813 0.325,-0.824C0.32,-0.835 0.313,-0.841 0.304,-0.841ZM0.252,-0.101C0.273,-0.101 0.291,-0.11 0.307,-0.127C0.323,-0.144 0.334,-0.169 0.339,-0.202C0.318,-0.216 0.303,-0.234 0.292,-0.257C0.281,-0.28 0.275,-0.304 0.275,-0.329C0.275,-0.338 0.276,-0.351 0.279,-0.367L0.276,-0.367C0.249,-0.367 0.226,-0.354 0.207,-0.327C0.189,-0.3 0.18,-0.263 0.18,-0.218C0.18,-0.18 0.187,-0.151 0.202,-0.131C0.216,-0.111 0.233,-0.101 0.252,-0.101Z" style="fill-rule:nonzero;"/>
            </g>
            <g transform="matrix(200,0,0,200,748.214,512.918)">
                <path d="M0.119,0.005C0.094,0.005 0.076,-0.008 0.066,-0.035C0.055,-0.062 0.05,-0.104 0.05,-0.163C0.05,-0.25 0.062,-0.332 0.087,-0.41C0.093,-0.429 0.103,-0.444 0.117,-0.453C0.13,-0.462 0.149,-0.466 0.174,-0.466C0.187,-0.466 0.197,-0.464 0.202,-0.461C0.207,-0.458 0.21,-0.451 0.21,-0.442C0.21,-0.431 0.205,-0.407 0.195,-0.37C0.188,-0.343 0.183,-0.32 0.179,-0.3C0.175,-0.28 0.172,-0.255 0.169,-0.226C0.191,-0.283 0.216,-0.33 0.243,-0.366C0.27,-0.402 0.297,-0.428 0.324,-0.443C0.35,-0.458 0.374,-0.466 0.396,-0.466C0.439,-0.466 0.461,-0.444 0.461,-0.401C0.461,-0.392 0.458,-0.371 0.452,-0.338C0.447,-0.311 0.444,-0.295 0.444,-0.288C0.444,-0.265 0.452,-0.253 0.469,-0.253C0.488,-0.253 0.512,-0.268 0.541,-0.297C0.55,-0.306 0.559,-0.31 0.568,-0.31C0.577,-0.31 0.584,-0.306 0.589,-0.299C0.594,-0.291 0.596,-0.281 0.596,-0.268C0.596,-0.243 0.589,-0.224 0.576,-0.21C0.557,-0.191 0.536,-0.174 0.51,-0.161C0.486,-0.147 0.459,-0.14 0.431,-0.14C0.396,-0.14 0.369,-0.149 0.35,-0.167C0.332,-0.185 0.323,-0.209 0.323,-0.24C0.323,-0.25 0.324,-0.26 0.326,-0.27C0.327,-0.283 0.328,-0.292 0.328,-0.297C0.328,-0.308 0.324,-0.313 0.317,-0.313C0.307,-0.313 0.294,-0.302 0.278,-0.28C0.261,-0.257 0.245,-0.228 0.229,-0.191C0.213,-0.154 0.2,-0.116 0.19,-0.075C0.183,-0.044 0.174,-0.023 0.165,-0.012C0.155,-0.001 0.14,0.005 0.119,0.005Z" style="fill-rule:nonzero;"/>
            </g>
            <g transform="matrix(200,0,0,200,839.214,512.918)">
                <path d="M0.494,-0.223C0.503,-0.223 0.509,-0.219 0.515,-0.211C0.52,-0.203 0.522,-0.192 0.522,-0.178C0.522,-0.151 0.516,-0.131 0.503,-0.116C0.478,-0.086 0.444,-0.058 0.399,-0.033C0.354,-0.008 0.305,0.005 0.254,0.005C0.184,0.005 0.13,-0.014 0.091,-0.052C0.052,-0.09 0.033,-0.142 0.033,-0.208C0.033,-0.254 0.043,-0.297 0.062,-0.337C0.081,-0.376 0.108,-0.408 0.142,-0.431C0.177,-0.454 0.216,-0.466 0.259,-0.466C0.298,-0.466 0.329,-0.455 0.352,-0.432C0.375,-0.408 0.387,-0.377 0.387,-0.338C0.387,-0.292 0.371,-0.253 0.338,-0.22C0.305,-0.187 0.249,-0.16 0.17,-0.141C0.187,-0.11 0.218,-0.095 0.265,-0.095C0.295,-0.095 0.329,-0.106 0.368,-0.127C0.406,-0.148 0.439,-0.175 0.467,-0.209C0.475,-0.218 0.484,-0.223 0.494,-0.223ZM0.242,-0.368C0.217,-0.368 0.197,-0.354 0.18,-0.325C0.163,-0.296 0.154,-0.262 0.154,-0.221L0.154,-0.219C0.193,-0.228 0.224,-0.242 0.247,-0.261C0.27,-0.28 0.281,-0.301 0.281,-0.326C0.281,-0.339 0.278,-0.349 0.271,-0.357C0.264,-0.364 0.254,-0.368 0.242,-0.368Z" style="fill-rule:nonzero;"/>
            </g>
            <g transform="matrix(200,0,0,200,916.814,512.918)">
                <path d="M0.171,0.005C0.13,0.005 0.097,-0.01 0.072,-0.04C0.047,-0.07 0.035,-0.109 0.035,-0.158C0.035,-0.211 0.047,-0.262 0.072,-0.31C0.097,-0.357 0.13,-0.396 0.171,-0.425C0.212,-0.454 0.255,-0.468 0.301,-0.468C0.316,-0.468 0.326,-0.465 0.331,-0.46C0.336,-0.454 0.34,-0.444 0.343,-0.429C0.357,-0.432 0.372,-0.433 0.387,-0.433C0.42,-0.433 0.436,-0.421 0.436,-0.398C0.436,-0.384 0.431,-0.351 0.421,-0.298C0.406,-0.221 0.398,-0.168 0.398,-0.138C0.398,-0.128 0.401,-0.12 0.406,-0.114C0.41,-0.108 0.417,-0.105 0.425,-0.105C0.438,-0.105 0.453,-0.113 0.471,-0.13C0.489,-0.146 0.513,-0.172 0.544,-0.209C0.552,-0.218 0.561,-0.223 0.571,-0.223C0.58,-0.223 0.587,-0.219 0.592,-0.211C0.597,-0.203 0.599,-0.192 0.599,-0.178C0.599,-0.151 0.593,-0.131 0.58,-0.116C0.553,-0.082 0.524,-0.053 0.493,-0.03C0.462,-0.007 0.433,0.005 0.404,0.005C0.382,0.005 0.362,-0.003 0.344,-0.018C0.325,-0.033 0.311,-0.053 0.302,-0.079C0.267,-0.023 0.224,0.005 0.171,0.005ZM0.207,-0.096C0.222,-0.096 0.236,-0.105 0.249,-0.122C0.262,-0.139 0.272,-0.162 0.278,-0.191L0.315,-0.375C0.287,-0.374 0.261,-0.364 0.237,-0.344C0.214,-0.323 0.195,-0.296 0.181,-0.263C0.167,-0.23 0.16,-0.194 0.16,-0.157C0.16,-0.136 0.164,-0.121 0.172,-0.111C0.181,-0.101 0.192,-0.096 0.207,-0.096Z" style="fill-rule:nonzero;"/>
            </g>
            <g transform="matrix(200,0,0,200,1010.81,512.918)">
                <path d="M0.616,-0.223C0.625,-0.223 0.631,-0.219 0.636,-0.211C0.642,-0.203 0.644,-0.192 0.644,-0.178C0.644,-0.151 0.638,-0.131 0.625,-0.116C0.598,-0.083 0.568,-0.054 0.535,-0.031C0.502,-0.007 0.47,0.005 0.438,0.005C0.387,0.005 0.349,-0.025 0.322,-0.084C0.294,-0.049 0.27,-0.025 0.249,-0.013C0.228,-0.001 0.203,0.005 0.175,0.005C0.134,0.005 0.101,-0.01 0.075,-0.041C0.048,-0.071 0.035,-0.11 0.035,-0.159C0.035,-0.212 0.046,-0.262 0.069,-0.308C0.092,-0.353 0.123,-0.391 0.163,-0.42C0.202,-0.449 0.247,-0.466 0.296,-0.471C0.309,-0.6 0.333,-0.711 0.369,-0.803C0.404,-0.894 0.451,-0.94 0.509,-0.94C0.538,-0.94 0.562,-0.927 0.581,-0.901C0.6,-0.875 0.609,-0.836 0.609,-0.783C0.609,-0.708 0.591,-0.621 0.554,-0.521C0.517,-0.421 0.468,-0.318 0.407,-0.213C0.41,-0.174 0.416,-0.147 0.425,-0.13C0.434,-0.113 0.445,-0.105 0.459,-0.105C0.477,-0.105 0.495,-0.113 0.514,-0.129C0.533,-0.145 0.558,-0.172 0.589,-0.209C0.597,-0.218 0.606,-0.223 0.616,-0.223ZM0.498,-0.842C0.485,-0.842 0.473,-0.82 0.46,-0.775C0.447,-0.73 0.437,-0.671 0.428,-0.598C0.419,-0.525 0.412,-0.449 0.408,-0.37C0.483,-0.533 0.52,-0.663 0.52,-0.762C0.52,-0.787 0.518,-0.807 0.514,-0.821C0.509,-0.835 0.504,-0.842 0.498,-0.842ZM0.21,-0.096C0.223,-0.096 0.235,-0.101 0.248,-0.112C0.261,-0.122 0.277,-0.141 0.296,-0.169C0.289,-0.205 0.286,-0.245 0.286,-0.29C0.286,-0.306 0.287,-0.332 0.288,-0.368C0.251,-0.357 0.221,-0.332 0.197,-0.295C0.172,-0.257 0.16,-0.215 0.16,-0.169C0.16,-0.12 0.177,-0.096 0.21,-0.096Z" style="fill-rule:nonzero;"/>
            </g>
            <g transform="matrix(200,0,0,200,1113.81,512.918)">
                <path d="M0.603,-0.223C0.612,-0.223 0.619,-0.219 0.624,-0.211C0.628,-0.203 0.631,-0.192 0.631,-0.178C0.631,-0.151 0.625,-0.131 0.612,-0.116C0.581,-0.081 0.55,-0.052 0.518,-0.029C0.485,-0.006 0.448,0.005 0.407,0.005C0.373,0.005 0.347,-0.005 0.33,-0.025C0.313,-0.044 0.304,-0.073 0.304,-0.11C0.304,-0.129 0.309,-0.162 0.318,-0.21C0.327,-0.252 0.331,-0.281 0.331,-0.297C0.331,-0.308 0.327,-0.313 0.32,-0.313C0.311,-0.313 0.299,-0.302 0.283,-0.28C0.267,-0.257 0.251,-0.228 0.235,-0.191C0.219,-0.154 0.206,-0.116 0.196,-0.075C0.183,-0.022 0.152,0.005 0.102,0.005C0.082,0.005 0.069,-0.002 0.063,-0.017C0.056,-0.031 0.053,-0.057 0.053,-0.094C0.053,-0.115 0.053,-0.132 0.054,-0.145L0.055,-0.225C0.055,-0.328 0.066,-0.435 0.086,-0.546C0.108,-0.657 0.139,-0.751 0.18,-0.827C0.221,-0.902 0.27,-0.94 0.327,-0.94C0.358,-0.94 0.383,-0.927 0.402,-0.901C0.421,-0.874 0.43,-0.84 0.43,-0.798C0.43,-0.731 0.41,-0.661 0.371,-0.589C0.332,-0.516 0.268,-0.432 0.179,-0.335C0.177,-0.3 0.176,-0.265 0.176,-0.228C0.198,-0.285 0.223,-0.331 0.25,-0.367C0.277,-0.402 0.303,-0.428 0.33,-0.443C0.356,-0.458 0.38,-0.466 0.402,-0.466C0.445,-0.466 0.467,-0.444 0.467,-0.401C0.467,-0.375 0.46,-0.328 0.445,-0.26C0.432,-0.202 0.426,-0.164 0.426,-0.145C0.426,-0.118 0.436,-0.105 0.455,-0.105C0.468,-0.105 0.484,-0.113 0.502,-0.13C0.521,-0.146 0.545,-0.172 0.576,-0.209C0.584,-0.218 0.593,-0.223 0.603,-0.223ZM0.306,-0.841C0.294,-0.841 0.281,-0.824 0.266,-0.79C0.251,-0.755 0.237,-0.709 0.224,-0.651C0.21,-0.592 0.199,-0.529 0.19,-0.46C0.231,-0.509 0.266,-0.562 0.293,-0.619C0.32,-0.676 0.333,-0.728 0.333,-0.775C0.333,-0.796 0.331,-0.813 0.326,-0.824C0.321,-0.835 0.315,-0.841 0.306,-0.841Z" style="fill-rule:nonzero;"/>
            </g>
            <g transform="matrix(200,0,0,200,1214.21,512.918)">
                <path d="M0.558,-0.307C0.567,-0.307 0.573,-0.303 0.578,-0.294C0.583,-0.285 0.585,-0.274 0.585,-0.261C0.585,-0.229 0.575,-0.21 0.556,-0.204C0.516,-0.19 0.472,-0.182 0.424,-0.18C0.411,-0.124 0.386,-0.079 0.349,-0.046C0.312,-0.012 0.269,0.005 0.222,0.005C0.182,0.005 0.148,-0.005 0.119,-0.024C0.091,-0.043 0.07,-0.069 0.055,-0.101C0.04,-0.133 0.033,-0.168 0.033,-0.205C0.033,-0.256 0.043,-0.301 0.062,-0.341C0.081,-0.38 0.108,-0.411 0.142,-0.434C0.176,-0.456 0.214,-0.467 0.255,-0.467C0.306,-0.467 0.346,-0.45 0.378,-0.414C0.408,-0.38 0.427,-0.336 0.432,-0.285C0.463,-0.287 0.501,-0.294 0.544,-0.305C0.549,-0.306 0.554,-0.307 0.558,-0.307ZM0.23,-0.101C0.251,-0.101 0.27,-0.11 0.285,-0.127C0.301,-0.144 0.312,-0.169 0.317,-0.202C0.296,-0.216 0.281,-0.234 0.27,-0.257C0.259,-0.28 0.253,-0.304 0.253,-0.329C0.253,-0.34 0.254,-0.35 0.256,-0.361L0.251,-0.361C0.224,-0.361 0.202,-0.348 0.185,-0.323C0.167,-0.297 0.158,-0.261 0.158,-0.214C0.158,-0.177 0.165,-0.149 0.18,-0.13C0.194,-0.111 0.211,-0.101 0.23,-0.101Z" style="fill-rule:nonzero;"/>
            </g>
            <g transform="matrix(200,0,0,200,1304.41,512.918)">
                <path d="M0.15,0.005C0.12,0.005 0.096,-0.009 0.077,-0.037C0.058,-0.064 0.048,-0.099 0.048,-0.14C0.048,-0.19 0.051,-0.236 0.058,-0.278C0.065,-0.319 0.076,-0.363 0.091,-0.41C0.098,-0.43 0.107,-0.444 0.119,-0.453C0.131,-0.462 0.15,-0.466 0.176,-0.466C0.191,-0.466 0.201,-0.464 0.206,-0.459C0.212,-0.454 0.215,-0.447 0.215,-0.438C0.215,-0.433 0.211,-0.415 0.204,-0.384C0.197,-0.359 0.192,-0.337 0.188,-0.317C0.175,-0.247 0.168,-0.2 0.168,-0.177C0.168,-0.163 0.17,-0.153 0.173,-0.148C0.176,-0.142 0.182,-0.139 0.189,-0.139C0.199,-0.139 0.212,-0.149 0.227,-0.169C0.242,-0.189 0.258,-0.219 0.275,-0.26C0.292,-0.301 0.308,-0.351 0.324,-0.41C0.329,-0.43 0.338,-0.444 0.348,-0.453C0.36,-0.462 0.376,-0.466 0.398,-0.466C0.413,-0.466 0.424,-0.464 0.43,-0.461C0.436,-0.457 0.439,-0.45 0.439,-0.44C0.439,-0.423 0.431,-0.378 0.414,-0.303C0.395,-0.218 0.386,-0.165 0.386,-0.145C0.386,-0.132 0.389,-0.123 0.394,-0.116C0.399,-0.109 0.406,-0.105 0.415,-0.105C0.428,-0.105 0.444,-0.113 0.463,-0.13C0.481,-0.146 0.505,-0.172 0.536,-0.209C0.544,-0.218 0.553,-0.223 0.563,-0.223C0.572,-0.223 0.579,-0.219 0.584,-0.211C0.589,-0.203 0.591,-0.192 0.591,-0.178C0.591,-0.151 0.585,-0.131 0.572,-0.116C0.543,-0.081 0.513,-0.052 0.48,-0.029C0.447,-0.006 0.409,0.005 0.367,0.005C0.335,0.005 0.312,-0.007 0.297,-0.032C0.281,-0.057 0.274,-0.091 0.274,-0.136C0.263,-0.091 0.246,-0.056 0.223,-0.032C0.2,-0.007 0.176,0.005 0.15,0.005Z" style="fill-rule:nonzero;"/>
            </g>
            <g transform="matrix(200,0,0,200,1396.81,512.918)">
                <path d="M0.119,0.005C0.094,0.005 0.076,-0.008 0.066,-0.035C0.055,-0.062 0.05,-0.104 0.05,-0.163C0.05,-0.25 0.062,-0.332 0.087,-0.41C0.093,-0.429 0.103,-0.444 0.117,-0.453C0.13,-0.462 0.149,-0.466 0.174,-0.466C0.187,-0.466 0.197,-0.464 0.202,-0.461C0.207,-0.458 0.21,-0.451 0.21,-0.442C0.21,-0.431 0.205,-0.407 0.195,-0.37C0.188,-0.343 0.183,-0.32 0.179,-0.3C0.175,-0.28 0.172,-0.255 0.169,-0.226C0.191,-0.283 0.216,-0.33 0.243,-0.366C0.27,-0.402 0.297,-0.428 0.324,-0.443C0.35,-0.458 0.374,-0.466 0.396,-0.466C0.439,-0.466 0.461,-0.444 0.461,-0.401C0.461,-0.375 0.454,-0.328 0.439,-0.26C0.426,-0.202 0.42,-0.164 0.42,-0.145C0.42,-0.118 0.43,-0.105 0.449,-0.105C0.462,-0.105 0.478,-0.113 0.497,-0.13C0.515,-0.146 0.539,-0.172 0.57,-0.209C0.578,-0.218 0.587,-0.223 0.597,-0.223C0.606,-0.223 0.613,-0.219 0.618,-0.211C0.623,-0.203 0.625,-0.192 0.625,-0.178C0.625,-0.151 0.619,-0.131 0.606,-0.116C0.577,-0.081 0.547,-0.052 0.514,-0.029C0.481,-0.006 0.443,0.005 0.401,0.005C0.367,0.005 0.341,-0.005 0.324,-0.025C0.307,-0.044 0.298,-0.073 0.298,-0.11C0.298,-0.129 0.303,-0.162 0.312,-0.21C0.321,-0.252 0.325,-0.281 0.325,-0.297C0.325,-0.308 0.321,-0.313 0.314,-0.313C0.305,-0.313 0.293,-0.302 0.278,-0.28C0.262,-0.257 0.246,-0.228 0.23,-0.191C0.213,-0.154 0.2,-0.116 0.19,-0.075C0.183,-0.044 0.174,-0.023 0.165,-0.012C0.155,-0.001 0.14,0.005 0.119,0.005Z" style="fill-rule:nonzero;"/>
            </g>
            <g transform="matrix(200,0,0,200,1496.01,512.918)">
                <path d="M0.412,-0.223C0.419,-0.168 0.43,-0.114 0.444,-0.061C0.447,-0.052 0.448,-0.043 0.448,-0.034C0.448,-0.004 0.43,0.011 0.393,0.011C0.372,0.011 0.357,0.005 0.345,-0.006C0.335,-0.017 0.324,-0.039 0.315,-0.07L0.314,-0.074C0.289,-0.043 0.266,-0.022 0.246,-0.011C0.225,-0 0.202,0.005 0.175,0.005C0.134,0.005 0.101,-0.01 0.075,-0.041C0.048,-0.071 0.035,-0.11 0.035,-0.159C0.035,-0.212 0.046,-0.262 0.069,-0.307C0.092,-0.352 0.123,-0.39 0.162,-0.419C0.201,-0.448 0.245,-0.465 0.294,-0.471C0.307,-0.597 0.331,-0.707 0.367,-0.8C0.402,-0.893 0.45,-0.94 0.509,-0.94C0.538,-0.94 0.562,-0.927 0.581,-0.901C0.6,-0.875 0.609,-0.836 0.609,-0.783C0.609,-0.71 0.591,-0.624 0.555,-0.526C0.519,-0.428 0.471,-0.327 0.412,-0.223ZM0.498,-0.842C0.479,-0.842 0.461,-0.793 0.444,-0.694C0.427,-0.595 0.415,-0.488 0.409,-0.372C0.483,-0.532 0.52,-0.662 0.52,-0.762C0.52,-0.787 0.518,-0.807 0.514,-0.821C0.509,-0.835 0.504,-0.842 0.498,-0.842ZM0.21,-0.096C0.223,-0.096 0.236,-0.101 0.249,-0.111C0.261,-0.121 0.277,-0.14 0.296,-0.169C0.289,-0.218 0.286,-0.268 0.286,-0.32C0.286,-0.341 0.286,-0.357 0.287,-0.368C0.25,-0.357 0.22,-0.333 0.196,-0.295C0.172,-0.257 0.16,-0.215 0.16,-0.169C0.16,-0.12 0.177,-0.096 0.21,-0.096Z" style="fill-rule:nonzero;"/>
            </g>
        </g>
    </g>
</svg>
